<svg width="30" height="30" viewBox="0 0 30 30" fill="none" xmlns="http://www.w3.org/2000/svg">
<rect width="30" height="30" rx="15" fill="#FF3553"/>
<path fill-rule="evenodd" clip-rule="evenodd" d="M19.5007 12C19.5007 14.4853 17.486 16.5 15.0007 16.5C12.5154 16.5 10.5007 14.4853 10.5007 12C10.5007 9.51472 12.5154 7.5 15.0007 7.5C17.486 7.5 19.5007 9.51472 19.5007 12ZM18.0007 12C18.0007 13.6569 16.6575 15 15.0007 15C13.3438 15 12.0007 13.6569 12.0007 12C12.0007 10.3431 13.3438 9 15.0007 9C16.6575 9 18.0007 10.3431 18.0007 12Z" fill="black"/>
<path d="M15.0007 18.75C10.1449 18.75 6.00763 21.6213 4.43164 25.644C4.81556 26.0253 5.21999 26.3859 5.64314 26.724C6.81669 23.0308 10.4982 20.25 15.0007 20.25C19.5031 20.25 23.1847 23.0308 24.3582 26.7241C24.7814 26.3859 25.1858 26.0253 25.5697 25.644C23.9937 21.6213 19.8565 18.75 15.0007 18.75Z" fill="black"/>
</svg>
