<svg width="22" height="22" viewBox="0 0 22 22" fill="none" xmlns="http://www.w3.org/2000/svg">
<path opacity="0.5" d="M10.9997 20.1666C16.0623 20.1666 20.1663 16.0625 20.1663 10.9999C20.1663 5.93731 16.0623 1.83325 10.9997 1.83325C5.93706 1.83325 1.83301 5.93731 1.83301 10.9999C1.83301 16.0625 5.93706 20.1666 10.9997 20.1666Z" fill="white"/>
<path d="M7.85983 8.66001C7.68817 6.74948 6.21481 4.96921 5.49958 4.3179L5.10449 3.97998C6.69819 2.64026 8.75465 1.83325 10.9996 1.83325C13.0285 1.83325 14.9035 2.49243 16.4221 3.6083C16.6366 4.25962 16.2279 5.62053 15.7988 6.27185C15.6434 6.50777 15.2909 6.80065 14.9044 7.07829C14.0332 7.70429 12.9336 8.01391 12.3746 9.16659C12.2148 9.49613 12.2216 9.81815 12.2985 10.0982C12.3537 10.2994 12.389 10.5182 12.3896 10.7323C12.3914 11.4242 11.6915 11.9241 10.9996 11.9166C9.19902 11.897 8.02028 10.4458 7.85983 8.66001Z" fill="white"/>
<path d="M12.3162 16.753C13.2219 15.0461 16.241 15.0461 16.241 15.0461C19.387 15.0133 19.812 13.1031 20.0961 12.1377C19.5876 16.2456 16.3613 19.5111 12.2722 20.0791C11.9764 19.4567 11.6261 18.0533 12.3162 16.753Z" fill="white"/>
</svg>
