<svg width="20" height="20" viewBox="0 0 20 20" fill="none" xmlns="http://www.w3.org/2000/svg">
<g clip-path="url(#clip0_166_1078)">
<path d="M9.16699 3.33344H3.33366C2.89163 3.33344 2.46771 3.50904 2.15515 3.8216C1.84259 4.13416 1.66699 4.55808 1.66699 5.00011V16.6668C1.66699 17.1088 1.84259 17.5327 2.15515 17.8453C2.46771 18.1578 2.89163 18.3334 3.33366 18.3334H15.0003C15.4424 18.3334 15.8663 18.1578 16.1788 17.8453C16.4914 17.5327 16.667 17.1088 16.667 16.6668V10.8334M15.417 2.08344C15.7485 1.75192 16.1982 1.56567 16.667 1.56567C17.1358 1.56567 17.5855 1.75192 17.917 2.08344C18.2485 2.41496 18.4348 2.8646 18.4348 3.33344C18.4348 3.80228 18.2485 4.25192 17.917 4.58344L10.0003 12.5001L6.66699 13.3334L7.50033 10.0001L15.417 2.08344Z" stroke="white" stroke-width="2" stroke-linecap="round" stroke-linejoin="round"/>
</g>
<defs>
<clipPath id="clip0_166_1078">
<rect width="20" height="20" fill="white"/>
</clipPath>
</defs>
</svg>
