<svg width="51" height="51" viewBox="0 0 51 51" fill="none" xmlns="http://www.w3.org/2000/svg">
<path d="M25.5 44.6251L22.4188 41.8626C18.8417 38.6397 15.8844 35.8595 13.5469 33.522C11.2094 31.1845 9.35 29.0949 7.96875 27.2532C6.5875 25.3761 5.61354 23.6584 5.04688 22.1001C4.51562 20.5418 4.25 18.948 4.25 17.3188C4.25 13.9897 5.36563 11.2095 7.59688 8.97822C9.82813 6.74697 12.6083 5.63135 15.9375 5.63135C17.7792 5.63135 19.5323 6.02093 21.1969 6.8001C22.8615 7.57926 24.2958 8.67718 25.5 10.0938C26.7042 8.67718 28.1385 7.57926 29.8031 6.8001C31.4677 6.02093 33.2208 5.63135 35.0625 5.63135C38.3917 5.63135 41.1719 6.74697 43.4031 8.97822C45.6344 11.2095 46.75 13.9897 46.75 17.3188C46.75 18.948 46.4667 20.5418 45.9 22.1001C45.3688 23.6584 44.4125 25.3761 43.0313 27.2532C41.65 29.0949 39.7906 31.1845 37.4531 33.522C35.1156 35.8595 32.1583 38.6397 28.5813 41.8626L25.5 44.6251ZM25.5 38.8876C28.9 35.8418 31.6979 33.2386 33.8938 31.0782C36.0896 28.8824 37.825 26.9876 39.1 25.3939C40.375 23.7647 41.2604 22.3303 41.7563 21.0907C42.2521 19.8157 42.5 18.5584 42.5 17.3188C42.5 15.1938 41.7917 13.423 40.375 12.0064C38.9583 10.5897 37.1875 9.88135 35.0625 9.88135C33.3979 9.88135 31.8573 10.3595 30.4406 11.3157C29.024 12.2366 28.05 13.423 27.5188 14.8751H23.4813C22.95 13.423 21.976 12.2366 20.5594 11.3157C19.1427 10.3595 17.6021 9.88135 15.9375 9.88135C13.8125 9.88135 12.0417 10.5897 10.625 12.0064C9.20833 13.423 8.5 15.1938 8.5 17.3188C8.5 18.5584 8.74792 19.8157 9.24375 21.0907C9.73958 22.3303 10.625 23.7647 11.9 25.3939C13.175 26.9876 14.9104 28.8824 17.1063 31.0782C19.3021 33.2386 22.1 35.8418 25.5 38.8876Z" fill="#FF3553"/>
</svg>
