<svg width="21" height="21" viewBox="0 0 21 21" fill="none" xmlns="http://www.w3.org/2000/svg">
<path d="M6.125 9.625L9.625 1.75C10.3212 1.75 10.9889 2.02656 11.4812 2.51884C11.9734 3.01113 12.25 3.67881 12.25 4.375V7.875H17.2025C17.4562 7.87213 17.7074 7.92444 17.9389 8.02831C18.1703 8.13219 18.3764 8.28514 18.5429 8.47657C18.7093 8.66801 18.8322 8.89334 18.9029 9.13697C18.9737 9.3806 18.9906 9.63669 18.9525 9.8875L17.745 17.7625C17.6817 18.1798 17.4698 18.5602 17.1482 18.8335C16.8266 19.1069 16.417 19.2548 15.995 19.25H6.125M6.125 9.625V19.25M6.125 9.625H3.5C3.03587 9.625 2.59075 9.80937 2.26256 10.1376C1.93437 10.4658 1.75 10.9109 1.75 11.375V17.5C1.75 17.9641 1.93437 18.4092 2.26256 18.7374C2.59075 19.0656 3.03587 19.25 3.5 19.25H6.125" stroke="#FF3553" stroke-width="2" stroke-linecap="round" stroke-linejoin="round"/>
</svg>
