<svg width="22" height="22" viewBox="0 0 22 22" fill="none" xmlns="http://www.w3.org/2000/svg">
<path opacity="0.5" d="M10.9997 14.7287L7.54251 18.3082C7.0474 18.8209 6.79984 19.0772 6.5902 19.1659C6.11248 19.368 5.58256 19.195 5.33126 18.7549C5.22098 18.5618 5.18661 18.2135 5.11788 17.5168C5.07908 17.1235 5.05967 16.9267 5.00078 16.762C4.86892 16.3932 4.59186 16.1064 4.23568 15.9698C4.07659 15.9089 3.88664 15.8888 3.50677 15.8486C2.83391 15.7774 2.49746 15.7419 2.31094 15.6276C1.88592 15.3675 1.71886 14.8188 1.91407 14.3241C1.99973 14.1071 2.24728 13.8508 2.74239 13.3382L5.00078 10.9998L6.1358 9.86475L10.9997 14.7287L15.8635 9.86475L16.9985 10.9998L19.2569 13.3382C19.7521 13.8508 19.9996 14.1071 20.0853 14.3241C20.2805 14.8188 20.1134 15.3675 19.6884 15.6276C19.5018 15.7419 19.1654 15.7774 18.4926 15.8486C18.1127 15.8888 17.9228 15.9089 17.7637 15.9698C17.4074 16.1064 17.1304 16.3932 16.9985 16.762C16.9397 16.9267 16.9202 17.1235 16.8815 17.5168C16.8127 18.2135 16.7783 18.5618 16.6681 18.7549C16.4168 19.195 15.8869 19.368 15.4091 19.1659C15.1995 19.0772 14.952 18.8209 14.4569 18.3082L10.9997 14.7287Z" fill="black"/>
<path fill-rule="evenodd" clip-rule="evenodd" d="M10.9997 14.6666C14.5435 14.6666 17.4163 11.7938 17.4163 8.24992C17.4163 4.70609 14.5435 1.83325 10.9997 1.83325C7.45585 1.83325 4.58301 4.70609 4.58301 8.24992C4.58301 11.7938 7.45585 14.6666 10.9997 14.6666ZM10.9997 5.49992C10.7392 5.49992 10.5651 5.81235 10.2167 6.43722L10.1266 6.59888C10.0277 6.77645 9.97823 6.86524 9.90105 6.92381C9.82387 6.9824 9.7278 7.00414 9.53557 7.04763L9.36058 7.08723C8.68414 7.24027 8.34593 7.3168 8.26547 7.57554C8.185 7.83429 8.41556 8.10391 8.8767 8.64315L8.99601 8.78266C9.12704 8.93589 9.19256 9.0125 9.22207 9.10729C9.2515 9.20206 9.2416 9.30427 9.2218 9.50878L9.20374 9.69486C9.13404 10.4144 9.09919 10.7741 9.3098 10.934C9.52054 11.0939 9.83716 10.9481 10.4705 10.6565L10.6343 10.5811C10.8143 10.4982 10.9042 10.4568 10.9997 10.4568C11.0951 10.4568 11.185 10.4982 11.3651 10.5811L11.5289 10.6565C12.1622 10.9481 12.4788 11.0939 12.6895 10.934C12.9002 10.7741 12.8653 10.4144 12.7956 9.69486L12.7775 9.50878C12.7577 9.30427 12.7478 9.20206 12.7773 9.10729C12.8068 9.0125 12.8723 8.93589 13.0033 8.78267L13.1227 8.64315C13.5838 8.10391 13.8144 7.83429 13.7339 7.57554C13.6534 7.3168 13.3152 7.24027 12.6388 7.08723L12.4638 7.04763C12.2715 7.00414 12.1755 6.9824 12.0983 6.92381C12.0211 6.86524 11.9716 6.77645 11.8727 6.59888L11.7826 6.43722C11.4343 5.81235 11.2601 5.49992 10.9997 5.49992Z" fill="black"/>
</svg>
