<svg width="38" height="40" viewBox="0 0 38 40" fill="none" xmlns="http://www.w3.org/2000/svg">
<g filter="url(#filter0_d_130_681)">
<circle cx="16.8415" cy="18.9069" r="15.9411" fill="#FF3553"/>
<path d="M11.2019 29.264C11.2019 27.464 11.4899 25.928 12.0659 24.656C12.6419 23.36 13.6739 21.932 15.1619 20.372C16.6259 18.812 17.6339 17.48 18.1859 16.376C18.7619 15.272 19.0499 14.12 19.0499 12.92C19.0499 11.84 18.8699 11.096 18.5099 10.688C18.1739 10.256 17.6699 10.04 16.9979 10.04C15.6299 10.04 14.9459 10.868 14.9459 12.524V15.224H11.2019V12.776C11.2019 10.736 11.7059 9.176 12.7139 8.096C13.7219 6.992 15.1859 6.44 17.1059 6.44C19.0259 6.44 20.4899 6.992 21.4979 8.096C22.5059 9.176 23.0099 10.736 23.0099 12.776C23.0099 14.312 22.6379 15.812 21.8939 17.276C21.1739 18.74 19.9139 20.42 18.1139 22.316C16.9379 23.564 16.1459 24.584 15.7379 25.376C15.3299 26.144 15.1259 26.972 15.1259 27.86V28.4H22.6499V32H11.2019V29.264Z" fill="white"/>
</g>
<defs>
<filter id="filter0_d_130_681" x="0.00039053" y="2.06582" width="37.6818" height="37.6821" filterUnits="userSpaceOnUse" color-interpolation-filters="sRGB">
<feFlood flood-opacity="0" result="BackgroundImageFix"/>
<feColorMatrix in="SourceAlpha" type="matrix" values="0 0 0 0 0 0 0 0 0 0 0 0 0 0 0 0 0 0 127 0" result="hardAlpha"/>
<feOffset dx="2" dy="2"/>
<feGaussianBlur stdDeviation="1.45"/>
<feComposite in2="hardAlpha" operator="out"/>
<feColorMatrix type="matrix" values="0 0 0 0 0 0 0 0 0 0 0 0 0 0 0 0 0 0 0.25 0"/>
<feBlend mode="normal" in2="BackgroundImageFix" result="effect1_dropShadow_130_681"/>
<feBlend mode="normal" in="SourceGraphic" in2="effect1_dropShadow_130_681" result="shape"/>
</filter>
</defs>
</svg>
