<svg width="38" height="40" viewBox="0 0 38 40" fill="none" xmlns="http://www.w3.org/2000/svg">
<g filter="url(#filter0_d_137_707)">
<circle cx="16.8415" cy="18.9069" r="15.9411" fill="#FF3553"/>
<path d="M16.9924 32.36C15.0484 32.36 13.5724 31.82 12.5644 30.74C11.5804 29.66 11.0884 28.112 11.0884 26.096V24.044H14.8324V26.276C14.8324 27.932 15.5164 28.76 16.8844 28.76C17.5564 28.76 18.0604 28.556 18.3964 28.148C18.7564 27.716 18.9364 26.972 18.9364 25.916V23.864C18.9364 22.712 18.7324 21.896 18.3244 21.416C17.9164 20.912 17.2564 20.66 16.3444 20.66H15.0124V17.06H16.4524C17.2444 17.06 17.8324 16.856 18.2164 16.448C18.6244 16.04 18.8284 15.356 18.8284 14.396V12.56C18.8284 11.696 18.6484 11.06 18.2884 10.652C17.9284 10.244 17.4484 10.04 16.8484 10.04C15.5764 10.04 14.9404 10.82 14.9404 12.38V14.036H11.1964V12.704C11.1964 10.688 11.6884 9.14 12.6724 8.06C13.6804 6.98 15.1204 6.44 16.9924 6.44C18.8884 6.44 20.3284 6.98 21.3124 8.06C22.2964 9.116 22.7884 10.652 22.7884 12.668V13.568C22.7884 14.936 22.5604 16.04 22.1044 16.88C21.6484 17.696 20.9404 18.284 19.9804 18.644V18.716C21.0124 19.1 21.7564 19.724 22.2124 20.588C22.6684 21.452 22.8964 22.556 22.8964 23.9V26.132C22.8964 28.148 22.3924 29.696 21.3844 30.776C20.4004 31.832 18.9364 32.36 16.9924 32.36Z" fill="white"/>
</g>
<defs>
<filter id="filter0_d_137_707" x="0.00039053" y="2.06582" width="37.6818" height="37.6821" filterUnits="userSpaceOnUse" color-interpolation-filters="sRGB">
<feFlood flood-opacity="0" result="BackgroundImageFix"/>
<feColorMatrix in="SourceAlpha" type="matrix" values="0 0 0 0 0 0 0 0 0 0 0 0 0 0 0 0 0 0 127 0" result="hardAlpha"/>
<feOffset dx="2" dy="2"/>
<feGaussianBlur stdDeviation="1.45"/>
<feComposite in2="hardAlpha" operator="out"/>
<feColorMatrix type="matrix" values="0 0 0 0 0 0 0 0 0 0 0 0 0 0 0 0 0 0 0.25 0"/>
<feBlend mode="normal" in2="BackgroundImageFix" result="effect1_dropShadow_137_707"/>
<feBlend mode="normal" in="SourceGraphic" in2="effect1_dropShadow_137_707" result="shape"/>
</filter>
</defs>
</svg>
