<svg width="19" height="18" viewBox="0 0 19 18" fill="none" xmlns="http://www.w3.org/2000/svg">
<path opacity="0.5" d="M9.16666 12.8954L5.7095 16.4749C5.21439 16.9876 4.96684 17.2439 4.7572 17.3326C4.27947 17.5348 3.74955 17.3618 3.49825 16.9217C3.38797 16.7286 3.3536 16.3802 3.28487 15.6836C3.24607 15.2902 3.22666 15.0935 3.16777 14.9288C3.03592 14.56 2.75885 14.2732 2.40267 14.1366C2.24359 14.0756 2.05363 14.0556 1.67376 14.0153C1.00091 13.9442 0.664453 13.9086 0.477929 13.7944C0.0529077 13.5342 -0.114146 12.9855 0.0810585 12.4909C0.166721 12.2738 0.414276 12.0175 0.909386 11.5049L3.16777 9.16651L4.30279 8.03149L9.16666 12.8954L14.0305 8.03149L15.1655 9.16651L17.4239 11.5049C17.9191 12.0175 18.1666 12.2738 18.2523 12.4909C18.4475 12.9855 18.2804 13.5342 17.8554 13.7944C17.6688 13.9086 17.3324 13.9442 16.6596 14.0153C16.2797 14.0556 16.0898 14.0756 15.9307 14.1366C15.5744 14.2732 15.2974 14.56 15.1655 14.9288C15.1067 15.0935 15.0872 15.2902 15.0485 15.6836C14.9797 16.3802 14.9453 16.7286 14.8351 16.9217C14.5838 17.3618 14.0539 17.5348 13.5761 17.3326C13.3665 17.2439 13.119 16.9876 12.6239 16.4749L9.16666 12.8954Z" fill="black"/>
<path fill-rule="evenodd" clip-rule="evenodd" d="M9.16667 12.8333C12.7105 12.8333 15.5833 9.9605 15.5833 6.41667C15.5833 2.87284 12.7105 0 9.16667 0C5.62284 0 2.75 2.87284 2.75 6.41667C2.75 9.9605 5.62284 12.8333 9.16667 12.8333ZM9.16667 3.66667C8.90624 3.66667 8.73207 3.9791 8.38374 4.60397L8.29363 4.76563C8.19472 4.9432 8.14522 5.03199 8.06804 5.09056C7.99086 5.14915 7.89479 5.17089 7.70257 5.21438L7.52757 5.25397C6.85113 5.40702 6.51293 5.48355 6.43246 5.74229C6.352 6.00104 6.58256 6.27066 7.04369 6.8099L7.163 6.94941C7.29404 7.10263 7.35955 7.17925 7.38907 7.27403C7.41849 7.36881 7.40859 7.47102 7.38879 7.67552L7.37073 7.86161C7.30103 8.5811 7.26618 8.9408 7.47679 9.10076C7.68753 9.26062 8.00415 9.11487 8.63747 8.82328L8.80128 8.74784C8.98132 8.66497 9.07124 8.62354 9.16667 8.62354C9.26209 8.62354 9.35202 8.66497 9.53205 8.74784L9.69586 8.82328C10.3292 9.11487 10.6458 9.26062 10.8565 9.10076C11.0672 8.9408 11.0323 8.5811 10.9626 7.86161L10.9445 7.67552C10.9247 7.47102 10.9148 7.36881 10.9443 7.27403C10.9738 7.17925 11.0393 7.10263 11.1703 6.94941L11.2897 6.8099C11.7507 6.27066 11.9814 6.00104 11.9009 5.74229C11.8204 5.48355 11.4822 5.40702 10.8058 5.25397L10.6308 5.21438C10.4385 5.17089 10.3425 5.14915 10.2653 5.09056C10.1881 5.03199 10.1386 4.9432 10.0397 4.76563L9.94959 4.60397C9.60126 3.9791 9.42709 3.66667 9.16667 3.66667Z" fill="black"/>
</svg>
