<svg width="26" height="27" viewBox="0 0 26 27" fill="none" xmlns="http://www.w3.org/2000/svg">
<path fill-rule="evenodd" clip-rule="evenodd" d="M14.9296 0.201518C14.4394 5.91732e-08 13.8179 0 12.575 0C11.332 0 10.7106 5.91732e-08 10.2204 0.201518C9.56678 0.470212 9.04749 0.985588 8.77675 1.63426C8.65316 1.93038 8.6048 2.27475 8.58587 2.77707C8.55806 3.51528 8.1766 4.19858 7.53198 4.56794C6.88736 4.93728 6.10037 4.92349 5.44231 4.5783C4.99449 4.3434 4.6698 4.21278 4.34961 4.17095C3.64819 4.0793 2.93881 4.26794 2.37754 4.69537C1.95659 5.01594 1.64585 5.55007 1.0244 6.61832C0.402939 7.68659 0.092218 8.22071 0.0229629 8.74281C-0.0693905 9.43892 0.12069 10.1429 0.551377 10.7C0.747957 10.9543 1.02422 11.1679 1.453 11.4353C2.08335 11.8284 2.48894 12.4981 2.4889 13.2368C2.48886 13.9756 2.08329 14.6451 1.453 15.0381C1.02416 15.3056 0.747838 15.5194 0.551245 15.7737C0.120558 16.3307 -0.0695095 17.0346 0.0228306 17.7307C0.0920857 18.2528 0.40282 18.787 1.02426 19.8552C1.64572 20.9235 1.95645 21.4577 2.37741 21.7782C2.93868 22.2056 3.64805 22.3942 4.34947 22.3026C4.66966 22.2608 4.99432 22.1301 5.44209 21.8953C6.10022 21.5501 6.88725 21.5363 7.53191 21.9056C8.17657 22.2751 8.55804 22.9584 8.58587 23.6967C8.6048 24.1989 8.65316 24.5433 8.77675 24.8394C9.04749 25.488 9.56678 26.0035 10.2204 26.2722C10.7106 26.4737 11.332 26.4737 12.575 26.4737C13.8179 26.4737 14.4394 26.4737 14.9296 26.2722C15.5832 26.0035 16.1025 25.488 16.3732 24.8394C16.4968 24.5433 16.5452 24.1989 16.5642 23.6966C16.592 22.9584 16.9733 22.2751 17.6179 21.9056C18.2626 21.5362 19.0496 21.5501 19.7078 21.8953C20.1556 22.1301 20.4802 22.2606 20.8003 22.3025C21.5018 22.3942 22.2111 22.2056 22.7724 21.7782C23.1934 21.4576 23.5041 20.9235 24.1256 19.8551C24.747 18.7869 25.0577 18.2528 25.1271 17.7307C25.2193 17.0346 25.0293 16.3305 24.5987 15.7735C24.402 15.5193 24.1257 15.3055 23.6968 15.0381C23.0666 14.6451 22.661 13.9754 22.661 13.2367C22.661 12.4979 23.0666 11.8286 23.6968 11.4356C24.1258 11.168 24.4021 10.9544 24.5988 10.7C25.0294 10.143 25.2195 9.43901 25.1272 8.74289C25.0578 8.2208 24.7472 7.68667 24.1257 6.61841C23.5042 5.55016 23.1936 5.01603 22.7725 4.69546C22.2113 4.26803 21.5019 4.07939 20.8005 4.17104C20.4803 4.21287 20.1556 4.34348 19.7079 4.57835C19.0498 4.92356 18.2627 4.93736 17.6181 4.56798C16.9734 4.1986 16.592 3.51525 16.564 2.77701C16.5451 2.27472 16.4968 1.93037 16.3732 1.63426C16.1025 0.985588 15.5832 0.470212 14.9296 0.201518ZM12.575 17.2079C14.7849 17.2079 16.5762 15.43 16.5762 13.2368C16.5762 11.0436 14.7849 9.26578 12.575 9.26578C10.3651 9.26578 8.5737 11.0436 8.5737 13.2368C8.5737 15.43 10.3651 17.2079 12.575 17.2079Z" fill="white"/>
</svg>
