<svg width="51" height="51" viewBox="0 0 51 51" fill="none" xmlns="http://www.w3.org/2000/svg">
<path d="M38.25 46.75C36.4792 46.75 34.974 46.1302 33.7344 44.8906C32.4948 43.651 31.875 42.1458 31.875 40.375C31.875 40.1271 31.8927 39.8703 31.9281 39.6047C31.9635 39.3391 32.0167 39.1 32.0875 38.8875L17.1063 30.175C16.5042 30.7062 15.8313 31.1224 15.0875 31.4234C14.3438 31.7245 13.5646 31.875 12.75 31.875C10.9792 31.875 9.47396 31.2552 8.23438 30.0156C6.99479 28.776 6.375 27.2708 6.375 25.5C6.375 23.7292 6.99479 22.224 8.23438 20.9844C9.47396 19.7448 10.9792 19.125 12.75 19.125C13.5646 19.125 14.3438 19.2755 15.0875 19.5766C15.8313 19.8776 16.5042 20.2938 17.1063 20.825L32.0875 12.1125C32.0167 11.9 31.9635 11.6609 31.9281 11.3953C31.8927 11.1297 31.875 10.8729 31.875 10.625C31.875 8.85417 32.4948 7.34896 33.7344 6.10938C34.974 4.86979 36.4792 4.25 38.25 4.25C40.0208 4.25 41.526 4.86979 42.7656 6.10938C44.0052 7.34896 44.625 8.85417 44.625 10.625C44.625 12.3958 44.0052 13.901 42.7656 15.1406C41.526 16.3802 40.0208 17 38.25 17C37.4354 17 36.6563 16.8495 35.9125 16.5484C35.1688 16.2474 34.4958 15.8313 33.8937 15.3L18.9125 24.0125C18.9833 24.225 19.0365 24.4641 19.0719 24.7297C19.1073 24.9953 19.125 25.2521 19.125 25.5C19.125 25.7479 19.1073 26.0047 19.0719 26.2703C19.0365 26.5359 18.9833 26.775 18.9125 26.9875L33.8937 35.7C34.4958 35.1688 35.1688 34.7526 35.9125 34.4516C36.6563 34.1505 37.4354 34 38.25 34C40.0208 34 41.526 34.6198 42.7656 35.8594C44.0052 37.099 44.625 38.6042 44.625 40.375C44.625 42.1458 44.0052 43.651 42.7656 44.8906C41.526 46.1302 40.0208 46.75 38.25 46.75ZM38.25 12.75C38.8521 12.75 39.3568 12.5464 39.7641 12.1391C40.1714 11.7318 40.375 11.2271 40.375 10.625C40.375 10.0229 40.1714 9.51823 39.7641 9.11094C39.3568 8.70365 38.8521 8.5 38.25 8.5C37.6479 8.5 37.1432 8.70365 36.7359 9.11094C36.3286 9.51823 36.125 10.0229 36.125 10.625C36.125 11.2271 36.3286 11.7318 36.7359 12.1391C37.1432 12.5464 37.6479 12.75 38.25 12.75ZM12.75 27.625C13.3521 27.625 13.8568 27.4214 14.2641 27.0141C14.6714 26.6068 14.875 26.1021 14.875 25.5C14.875 24.8979 14.6714 24.3932 14.2641 23.9859C13.8568 23.5786 13.3521 23.375 12.75 23.375C12.1479 23.375 11.6432 23.5786 11.2359 23.9859C10.8286 24.3932 10.625 24.8979 10.625 25.5C10.625 26.1021 10.8286 26.6068 11.2359 27.0141C11.6432 27.4214 12.1479 27.625 12.75 27.625ZM38.25 42.5C38.8521 42.5 39.3568 42.2964 39.7641 41.8891C40.1714 41.4818 40.375 40.9771 40.375 40.375C40.375 39.7729 40.1714 39.2682 39.7641 38.8609C39.3568 38.4536 38.8521 38.25 38.25 38.25C37.6479 38.25 37.1432 38.4536 36.7359 38.8609C36.3286 39.2682 36.125 39.7729 36.125 40.375C36.125 40.9771 36.3286 41.4818 36.7359 41.8891C37.1432 42.2964 37.6479 42.5 38.25 42.5Z" fill="#FF3553"/>
</svg>
