<svg width="394" height="209" viewBox="0 0 394 209" fill="none" xmlns="http://www.w3.org/2000/svg">
<rect x="86.5254" y="34.1226" width="289.431" height="165.738" rx="66" fill="#EF403F"/>
<g clip-path="url(#clip0_138_823)">
<path d="M227.28 29.1307L206.187 209L175.369 203.171L52.1992 179.869L124.343 10.1292L204.774 24.9798L227.28 29.1307Z" fill="#A882E5"/>
<path d="M189.167 42.9973L198.173 44.6841L192.266 72.8391L184.673 69.7383L189.167 42.9973Z" fill="#FFE7D6"/>
<path d="M183.26 76.4939L190.58 79.8758L188.606 90.5672L181.855 88.5993L183.26 76.4939Z" fill="#FFE7D6"/>
<path d="M227.279 29.1306L217.225 114.902L206.186 209L175.369 203.171L192.967 96.5041L204.774 24.9797L227.279 29.1306Z" fill="black"/>
<path opacity="0.15" d="M217.225 114.902L206.186 209L175.369 203.171L192.967 96.5042L217.225 114.902Z" fill="#FFE7D6"/>
<path d="M175.583 65.688C178.879 50.1001 171.512 35.3373 159.129 32.7143C146.746 30.0913 134.035 40.6014 130.738 56.1892C127.442 71.7771 134.808 86.5399 147.192 89.1629C159.575 91.786 172.286 81.2759 175.583 65.688Z" stroke="black" stroke-width="2" stroke-miterlimit="10"/>
<path d="M168.067 62.8235C170.212 52.6818 166.167 43.2354 159.034 41.7244C151.9 40.2133 144.379 47.2099 142.234 57.3516C140.089 67.4934 144.134 76.9398 151.267 78.4508C158.401 79.9618 165.922 72.9652 168.067 62.8235Z" fill="black"/>
<path d="M167.997 62.9299C170.237 52.3369 165.521 42.366 157.464 40.6593C149.406 38.9525 141.058 46.1562 138.818 56.7492C136.578 67.3422 141.294 77.313 149.351 79.0198C157.409 80.7265 165.757 73.5229 167.997 62.9299Z" stroke="black" stroke-width="2.04" stroke-miterlimit="10"/>
<path d="M159.802 148.327C164.189 127.584 154.384 107.937 137.903 104.446C121.421 100.955 104.504 114.941 100.118 135.685C95.7309 156.429 105.536 176.075 122.017 179.566C138.499 183.057 155.416 169.071 159.802 148.327Z" stroke="black" stroke-width="2.66" stroke-miterlimit="10"/>
<path d="M149.782 144.519C152.636 131.022 147.256 118.451 137.766 116.441C128.275 114.431 118.267 123.743 115.413 137.24C112.559 150.737 117.939 163.308 127.43 165.318C136.92 167.328 146.928 158.016 149.782 144.519Z" fill="black"/>
<path d="M149.698 144.649C152.68 130.548 146.405 117.277 135.682 115.006C124.959 112.734 113.85 122.323 110.868 136.424C107.886 150.524 114.161 163.795 124.884 166.067C135.607 168.338 146.717 158.749 149.698 144.649Z" stroke="black" stroke-width="2.72" stroke-miterlimit="10"/>
<path d="M69.7728 171.989C69.7728 173.701 68.3847 175.082 66.6828 175.082C64.9808 175.082 63.5928 173.693 63.5928 171.989C63.5928 170.286 64.9808 168.897 66.6828 168.897C68.3847 168.897 69.7728 170.286 69.7728 171.989Z" fill="black"/>
<path d="M170.462 193.38C170.462 195.092 169.074 196.473 167.372 196.473C165.67 196.473 164.282 195.084 164.282 193.38C164.282 191.677 165.67 190.288 167.372 190.288C169.074 190.288 170.462 191.677 170.462 193.38Z" fill="black"/>
<path d="M133.341 18.2986C133.341 20.0102 131.953 21.3911 130.251 21.3911C128.549 21.3911 127.161 20.0019 127.161 18.2986C127.161 16.5952 128.549 15.2061 130.251 15.2061C131.953 15.2061 133.341 16.5952 133.341 18.2986Z" fill="black"/>
<path d="M199.156 30.9663C199.156 32.6779 197.768 34.0588 196.066 34.0588C194.364 34.0588 192.976 32.6696 192.976 30.9663C192.976 29.2629 194.364 27.8738 196.066 27.8738C197.768 27.8738 199.156 29.2629 199.156 30.9663Z" fill="black"/>
<path d="M124.798 55.9627L63.4025 31.2392L87.9903 33.1327L51.9844 0L113.512 32.4712L96.0788 37.1513L124.798 55.9627Z" fill="#FFE7D6"/>
<path d="M120.113 65.8604L54.1658 95.6195L73.8211 77.7508L0 85.573L92.0059 57.2527L83.149 74.402L120.113 65.8604Z" fill="#FFE7D6"/>
<path d="M206.468 30.123L178.063 202.393L203.089 207.735L223.909 34.059L206.468 30.123Z" stroke="#FFE7D6" stroke-linecap="round" stroke-linejoin="round"/>
</g>
<g clip-path="url(#clip1_138_823)">
<mask id="mask0_138_823" style="mask-type:luminance" maskUnits="userSpaceOnUse" x="216" y="40" width="160" height="161">
<path d="M375.92 40.2158H216.922V200.146H375.92V40.2158Z" fill="white"/>
</mask>
<g mask="url(#mask0_138_823)">
<path d="M337.1 187.405C337.021 187.613 337.009 187.838 337.076 188.057L337.106 188.161L337.807 190.422L338.434 192.463L340.823 200.22V200.232L340.829 200.238H289.402C289.353 200.116 289.31 199.994 289.268 199.866C286.501 192.335 282.681 182.299 278.659 172.867C276.1 166.847 273.456 161.07 270.951 156.348C262.5 140.414 246.127 106.029 240.917 95.025C239.985 93.0629 240.692 90.717 242.556 89.5897L245.335 87.9141C247.053 86.8721 249.259 87.1829 250.624 88.6575C255.2 93.593 265.388 105.085 272.28 116.546C272.432 116.796 272.645 116.943 272.871 116.997C273.187 117.077 273.529 116.979 273.772 116.76C273.998 116.565 274.132 116.266 274.077 115.895C274.028 115.559 273.998 115.224 273.998 114.889C273.998 113.031 274.778 111.233 276.198 109.99C278.348 108.107 282.12 106.042 288.408 105.804C288.421 105.804 288.433 105.804 288.445 105.798C288.725 105.78 288.987 105.639 289.164 105.414C290.011 104.268 292.997 100.899 299.139 99.8569C305.135 98.8394 308.114 100.771 309.046 101.557C309.107 101.606 309.156 101.654 309.199 101.691C309.308 101.795 309.394 101.923 309.443 102.063L311.356 107.09C311.496 107.455 311.77 107.65 312.075 107.705C312.635 107.809 313.269 107.431 313.251 106.712L311.423 48.9536C311.356 46.8514 312.971 45.0843 315.073 44.9564L321.19 44.603C323.226 44.4811 325.005 45.9618 325.267 47.9847L334.449 120.184L334.669 121.927C334.687 122.079 334.736 122.219 334.821 122.341C335.699 123.663 341.03 131.761 345.174 139.122C345.192 139.153 345.21 139.183 345.222 139.214C346.904 142.205 348.385 145.063 349.287 147.293C349.914 148.847 350.262 150.084 350.201 150.852C349.853 155.428 338.434 184.06 337.094 187.405H337.1Z" fill="#FCA69D"/>
<path opacity="0.17" d="M340.829 200.232C340.829 200.232 340.829 200.238 340.823 200.238H289.402C289.353 200.116 289.31 199.994 289.268 199.866C286.501 192.335 282.681 182.299 278.659 172.867C280.164 173.519 281.669 174.555 282.998 175.408C287.75 178.46 292.985 180.776 298.432 182.263C304.72 183.975 311.313 184.596 317.802 183.963C322.647 183.493 327.887 182.445 332.128 184.84C334.401 186.126 336.034 188.228 337.368 190.507C337.715 191.092 338.038 191.689 338.349 192.292C338.38 192.347 338.41 192.408 338.434 192.463C339.677 194.894 340.762 197.551 340.823 200.219V200.232H340.829Z" fill="#694949"/>
<path d="M336.972 188.179C336.911 188.179 336.85 188.167 336.789 188.142C336.558 188.045 336.454 187.771 336.552 187.539C340.463 178.527 350.463 154.392 349.756 150.943C348.817 146.355 331.677 116.406 330.16 115.51C328.996 115.023 314.11 113.073 301.722 111.556C301.326 111.513 300.948 111.763 300.851 112.153C300.266 114.523 299.419 120.678 304.202 126.515C308.541 131.81 317.888 133.224 317.985 133.236C318.174 133.26 318.327 133.406 318.369 133.595L319.947 140.974C320.002 141.218 319.844 141.462 319.594 141.517C319.344 141.571 319.106 141.413 319.052 141.163L317.54 134.095C315.804 133.796 307.651 132.169 303.495 127.1C298.45 120.94 299.346 114.444 299.967 111.94C300.175 111.105 300.979 110.544 301.838 110.654C309.954 111.647 328.99 114.03 330.531 114.676C332.487 115.498 349.792 146.525 350.658 150.76C351.559 155.196 337.971 186.57 337.392 187.905C337.319 188.075 337.149 188.179 336.972 188.179Z" fill="black"/>
<path d="M313.439 113.024C313.256 113.024 313.08 112.915 313.013 112.732L308.948 102.026C308.857 101.788 308.979 101.526 309.21 101.435C309.448 101.344 309.71 101.465 309.802 101.697L313.866 112.403C313.957 112.641 313.835 112.903 313.604 112.994C313.549 113.012 313.494 113.024 313.439 113.024Z" fill="black"/>
<path d="M307.005 151.071C306.822 151.071 306.651 150.961 306.578 150.785L288.481 105.956C288.383 105.725 288.499 105.457 288.731 105.359C288.962 105.262 289.23 105.377 289.328 105.609L307.267 150.041L311.105 148.786C311.343 148.707 311.605 148.835 311.684 149.079C311.763 149.316 311.629 149.578 311.392 149.657L307.151 151.047C307.102 151.065 307.053 151.071 307.011 151.071H307.005Z" fill="black"/>
<path d="M294.745 154.891C293.344 154.891 292.009 154.13 291.315 152.838L272.828 116.918C272.712 116.693 272.803 116.418 273.023 116.303C273.248 116.187 273.522 116.278 273.638 116.498L292.119 152.411C292.802 153.679 294.288 154.276 295.665 153.831L306.859 150.181C307.096 150.102 307.358 150.236 307.438 150.474C307.517 150.711 307.383 150.973 307.145 151.053L295.952 154.703C295.55 154.83 295.141 154.898 294.739 154.898L294.745 154.891Z" fill="black"/>
<path d="M300.711 176.017C300.461 176.017 300.254 175.81 300.26 175.554C300.26 175.462 300.363 166.347 302.917 159.528C305.482 152.674 322.379 138.098 323.091 137.483C323.28 137.318 323.573 137.337 323.737 137.532C323.902 137.721 323.877 138.013 323.689 138.178C323.512 138.33 306.256 153.21 303.77 159.851C301.271 166.517 301.168 175.475 301.168 175.566C301.168 175.816 300.961 176.017 300.711 176.017Z" fill="black"/>
<path d="M311.837 116.845C311.374 116.845 310.911 116.82 310.454 116.766C306.981 116.376 303.654 114.475 301.546 111.684C301.393 111.483 301.436 111.196 301.637 111.044C301.838 110.892 302.125 110.928 302.277 111.135C304.233 113.731 307.328 115.492 310.558 115.858C313.781 116.217 317.199 115.187 319.679 113.091C319.874 112.927 320.161 112.951 320.325 113.146C320.49 113.341 320.465 113.628 320.27 113.792C317.949 115.748 314.884 116.845 311.843 116.845H311.837Z" fill="black"/>
<path d="M295.117 154.703C294.953 154.703 294.788 154.611 294.709 154.453C293.435 151.967 292.503 149.322 291.924 146.592C291.638 145.215 291.394 143.601 291.802 142.047C292.253 140.322 293.508 139 294.995 138.683C296.11 138.446 297.384 138.763 298.481 139.555C299.456 140.262 300.168 141.206 300.79 142.132C302.654 144.874 304.086 147.878 305.049 151.053C305.122 151.296 304.988 151.546 304.745 151.619C304.501 151.693 304.245 151.552 304.178 151.315C303.246 148.225 301.85 145.307 300.034 142.644C299.456 141.791 298.804 140.92 297.944 140.298C297.055 139.658 296.055 139.396 295.184 139.579C293.874 139.859 292.984 141.139 292.686 142.285C292.326 143.656 292.552 145.142 292.82 146.416C293.381 149.066 294.288 151.638 295.525 154.051C295.641 154.276 295.55 154.55 295.324 154.666C295.257 154.703 295.184 154.715 295.117 154.715V154.703Z" fill="black"/>
<path d="M309.546 150.188C309.369 150.188 309.205 150.084 309.125 149.913C308.102 147.592 307.364 145.148 306.926 142.65C306.633 140.981 306.408 138.818 307.255 136.922C308.065 135.113 310.155 133.596 312.251 134.193C313.72 134.607 314.676 135.887 315.42 137.081C316.523 138.86 317.449 140.767 318.168 142.735C318.253 142.973 318.131 143.235 317.894 143.32C317.656 143.406 317.394 143.284 317.309 143.046C316.614 141.133 315.718 139.287 314.646 137.562C313.994 136.514 313.177 135.399 312.008 135.07C310.411 134.613 308.735 135.874 308.096 137.294C307.346 138.964 307.559 140.95 307.828 142.492C308.254 144.917 308.973 147.287 309.966 149.542C310.07 149.773 309.966 150.041 309.735 150.145C309.674 150.169 309.613 150.182 309.552 150.182L309.546 150.188Z" fill="black"/>
<path d="M343.102 198.123C343.029 198.123 342.962 198.099 342.901 198.05C342.773 197.941 342.761 197.746 342.87 197.618L345.661 194.382C345.911 194.096 345.972 193.712 345.825 193.359C345.679 193.005 345.368 192.78 344.991 192.749L341.542 192.481C341.371 192.469 341.249 192.323 341.262 192.152C341.274 191.981 341.432 191.847 341.591 191.872L345.039 192.14C345.643 192.189 346.161 192.56 346.392 193.121C346.624 193.681 346.52 194.315 346.124 194.772L343.333 198.008C343.272 198.081 343.187 198.111 343.102 198.111V198.123Z" fill="#FFE7D6"/>
<path d="M343.912 200.238H289.402C289.353 200.116 289.31 199.994 289.268 199.866L337.368 190.507L337.807 190.422L340.805 189.837L341.426 191.914L341.597 192.493L343.059 197.398L343.266 198.075L343.912 200.238Z" fill="black"/>
<path d="M340.805 189.837L346.514 207.458L295.33 220.37L289.268 199.866L340.805 189.837Z" fill="black"/>
<path d="M338.514 193.633C337.983 193.017 337.246 192.64 336.43 192.579C334.736 192.439 333.279 193.706 333.152 195.388C333.024 197.063 334.285 198.538 335.961 198.666C336.04 198.672 336.119 198.672 336.198 198.672C336.929 198.672 337.624 198.416 338.185 197.941C338.8 197.411 339.178 196.667 339.239 195.857C339.306 195.04 339.044 194.254 338.514 193.633ZM337.789 197.478C337.289 197.904 336.655 198.105 336.009 198.057C334.663 197.953 333.657 196.777 333.761 195.436C333.858 194.151 334.931 193.176 336.192 193.176C336.259 193.176 336.32 193.182 336.387 193.182C337.033 193.237 337.63 193.535 338.051 194.029C338.434 194.48 338.642 195.034 338.642 195.619C338.642 195.686 338.642 195.747 338.635 195.808C338.581 196.46 338.282 197.051 337.789 197.478Z" fill="#FFE7D6"/>
<path d="M315.847 198.8C315.317 198.184 314.579 197.807 313.763 197.746C312.069 197.606 310.612 198.873 310.485 200.555C310.357 202.23 311.618 203.705 313.294 203.833C313.373 203.839 313.452 203.839 313.531 203.839C314.262 203.839 314.957 203.583 315.518 203.108C316.133 202.578 316.511 201.834 316.572 201.024C316.639 200.207 316.377 199.421 315.847 198.8ZM315.122 202.645C314.622 203.071 313.988 203.272 313.342 203.224C311.996 203.12 310.99 201.944 311.094 200.603C311.191 199.318 312.264 198.343 313.525 198.343C313.592 198.343 313.653 198.349 313.72 198.349C314.366 198.404 314.963 198.702 315.384 199.196C315.767 199.647 315.975 200.201 315.975 200.786C315.975 200.853 315.975 200.914 315.975 200.975C315.92 201.627 315.621 202.218 315.128 202.645H315.122Z" fill="#FFE7D6"/>
</g>
<path d="M241.083 137.498L215.625 116.444L226.902 120.91L208.854 92.2182L238.961 124.245L230.15 124.061L241.083 137.498Z" fill="#FFE7D6"/>
</g>
<path d="M278.828 65.95L262.819 37.052L271.685 45.3284L265.365 12.0268L281.694 52.8372L273.558 49.448L278.828 65.95Z" fill="#FFE7D6"/>
<path d="M353.703 84.4146L363.95 53.008L363.933 65.1371L384.004 37.8226L365.255 77.579L362.193 69.3147L353.703 84.4146Z" fill="#FFE7D6"/>
<defs>
<clipPath id="clip0_138_823">
<rect width="227.28" height="209" fill="white"/>
</clipPath>
<clipPath id="clip1_138_823">
<rect width="158.998" height="159.931" fill="white" transform="translate(216.922 40.2158)"/>
</clipPath>
</defs>
</svg>
